# xmcd
#
# Track frame offsets:
#	150
#	10050
#	19523
#	27338
#	39946
#	50559
#	63294
#	73869
#	85734
#	95747
#	105490
#	115593
#
# Disc length: 1694 seconds
#
# Revision: 1
# Processed by: cddbd v1.5.2PL0 Copyright (c) Steve Scherf et al.
# Submitted via: audiograbber 1.83.01
#
DISCID=8d069c0c
DTITLE=Billy Walker - Greatest Hits
DYEAR=1963
DGENRE=Country
TTITLE0=Charlie's Shoes
TTITLE1=Give Back My Heart
TTITLE2=Beggin' For Trouble
TTITLE3=Funny How Time Slips Away
TTITLE4=I've Got A New Heartache
TTITLE5=The Next Voice You Hear
TTITLE6=Willie The Weeper
TTITLE7=It's Me Not Them
TTITLE8=Lovely Hula Hands
TTITLE9=Plaything
TTITLE10=Ancient History
TTITLE11=Wild Colonial Boy
EXTD=
EXTT0=
EXTT1=
EXTT2=
EXTT3=
EXTT4=
EXTT5=
EXTT6=
EXTT7=
EXTT8=
EXTT9=
EXTT10=
EXTT11=
PLAYORDER=
